<?xml version="1.0" encoding="UTF-8" standalone="no"?>
<!DOCTYPE svg PUBLIC "-//W3C//DTD SVG 1.1//EN" "http://www.w3.org/Graphics/SVG/1.1/DTD/svg11.dtd">
<svg width="100%" height="100%" viewBox="0 0 1981 401" version="1.1" xmlns="http://www.w3.org/2000/svg" xmlns:xlink="http://www.w3.org/1999/xlink" xml:space="preserve" xmlns:serif="http://www.serif.com/" style="fill-rule:evenodd;clip-rule:evenodd;stroke-linejoin:round;stroke-miterlimit:2;">
    <rect id="Artboard1" x="0" y="0" width="1981" height="401" style="fill:url(#_Linear1);"/>
    <g id="Artboard11" serif:id="Artboard1">
        <g transform="matrix(0.093984,0,0,0.093984,352.035249,200.5)">
            <g transform="matrix(1,0,0,1,-1066.666667,-1066.666667)">
                <g transform="matrix(4.166667,0,0,4.166667,0,0)">
                    <path d="M484.88,204.05L484.88,453.94C484.88,467.25 474.09,478.04 460.78,478.04L51.22,478.04C37.91,478.04 27.12,467.25 27.12,453.94L27.12,204.05L59.26,210.77L59.26,437.14C59.26,441.98 63.18,445.9 68.02,445.9L443.98,445.9C448.82,445.9 452.74,441.98 452.74,437.14L452.74,210.77L484.88,204.05ZM38.31,33.96C29.84,33.96 24.48,40.67 21.38,49.09C21.25,49.44 21.14,49.81 21.04,50.17L1.87,116.66C-1.43,129.06 -0.39,142.3 5.26,153.82C15.14,173.97 37.31,187.84 61.27,187.84C91.57,187.84 116.68,165.64 121.24,136.62C121.52,134.83 123.04,133.49 124.85,133.49L127.5,133.49C129.31,133.49 130.83,134.82 131.11,136.62C135.67,165.64 160.78,187.84 191.08,187.84C221.38,187.84 246.49,165.64 251.05,136.62C251.33,134.83 252.85,133.49 254.66,133.49L257.31,133.49C259.12,133.49 260.64,134.82 260.92,136.62C265.48,165.64 290.59,187.84 320.89,187.84C351.19,187.84 376.3,165.64 380.86,136.62C381.14,134.83 382.66,133.49 384.47,133.49L387.12,133.49C388.93,133.49 390.45,134.82 390.73,136.62C395.29,165.64 420.4,187.84 450.7,187.84C474.65,187.84 496.83,173.97 506.71,153.82C512.36,142.3 513.4,129.06 510.1,116.66L490.93,50.18C490.83,49.81 490.72,49.45 490.59,49.1C487.49,40.68 482.13,33.97 473.66,33.97L38.31,33.97L38.31,33.96ZM418.88,233.59L418.88,410.19C418.88,416.44 413.81,421.51 407.56,421.51C404.99,421.51 402.52,420.52 400.65,418.76L324.47,346.54C321.6,343.82 317.08,343.88 314.28,346.68L294.39,366.57C292.39,368.57 289.16,368.57 287.16,366.57L215.24,294.65C211.53,290.94 205.52,290.94 201.81,294.65L93.12,403.34L93.12,233.6C93.12,227.35 98.19,222.28 104.44,222.28L407.56,222.28C413.81,222.28 418.88,227.35 418.88,233.6L418.88,233.59ZM375.76,287.92C375.76,269.21 360.59,254.05 341.89,254.05C323.19,254.05 308.02,269.21 308.02,287.92C308.02,306.63 323.19,321.79 341.89,321.79C360.59,321.79 375.76,306.63 375.76,287.92Z" style="fill:rgb(255,241,219);fill-rule:nonzero;"/>
                </g>
            </g>
        </g>
        <g transform="matrix(0.870753,0,0,0.870753,-160.468825,16.808744)">
            <g transform="matrix(256.552027,0,0,256.552027,737.328722,300.75)">
                <path d="M0.313,0.014C0.465,0.014 0.564,-0.067 0.564,-0.191C0.564,-0.314 0.469,-0.36 0.348,-0.388L0.296,-0.401C0.203,-0.424 0.148,-0.449 0.148,-0.524C0.148,-0.599 0.208,-0.641 0.301,-0.641C0.397,-0.641 0.467,-0.599 0.467,-0.498L0.467,-0.456L0.55,-0.456L0.55,-0.498C0.55,-0.641 0.442,-0.714 0.301,-0.714C0.16,-0.714 0.065,-0.641 0.065,-0.523C0.065,-0.405 0.149,-0.357 0.273,-0.327L0.325,-0.314C0.419,-0.292 0.481,-0.266 0.481,-0.189C0.481,-0.114 0.422,-0.059 0.313,-0.059C0.206,-0.059 0.131,-0.114 0.131,-0.231L0.131,-0.252L0.048,-0.252L0.048,-0.231C0.048,-0.067 0.16,0.014 0.313,0.014Z" style="fill:rgb(255,241,219);fill-rule:nonzero;"/>
            </g>
            <g transform="matrix(256.552027,0,0,256.552027,886.898554,300.75)">
                <path d="M0.252,-0L0.336,-0L0.336,-0.624L0.561,-0.624L0.561,-0.7L0.027,-0.7L0.027,-0.624L0.252,-0.624L0.252,-0Z" style="fill:rgb(255,241,219);fill-rule:nonzero;"/>
            </g>
            <g transform="matrix(256.552027,0,0,256.552027,1029.798033,300.75)">
                <path d="M0.334,0.014C0.502,0.014 0.609,-0.085 0.609,-0.27L0.609,-0.43C0.609,-0.615 0.502,-0.714 0.334,-0.714C0.167,-0.714 0.06,-0.615 0.06,-0.43L0.06,-0.27C0.06,-0.085 0.167,0.014 0.334,0.014ZM0.334,-0.061C0.214,-0.061 0.144,-0.138 0.144,-0.267L0.144,-0.433C0.144,-0.562 0.214,-0.639 0.334,-0.639C0.455,-0.639 0.525,-0.562 0.525,-0.433L0.525,-0.267C0.525,-0.138 0.455,-0.061 0.334,-0.061Z" style="fill:rgb(255,241,219);fill-rule:nonzero;"/>
            </g>
            <g transform="matrix(256.552027,0,0,256.552027,1201.431339,300.75)">
                <path d="M0.333,0.014C0.498,0.014 0.59,-0.085 0.59,-0.244L0.59,-0.257L0.507,-0.257L0.507,-0.241C0.507,-0.136 0.452,-0.061 0.333,-0.061C0.214,-0.061 0.144,-0.138 0.144,-0.268L0.144,-0.432C0.144,-0.562 0.214,-0.639 0.333,-0.639C0.452,-0.639 0.507,-0.564 0.507,-0.459L0.507,-0.451L0.59,-0.451L0.59,-0.456C0.59,-0.615 0.498,-0.714 0.333,-0.714C0.167,-0.714 0.06,-0.615 0.06,-0.43L0.06,-0.27C0.06,-0.085 0.167,0.014 0.333,0.014Z" style="fill:rgb(255,241,219);fill-rule:nonzero;"/>
            </g>
            <g transform="matrix(256.552027,0,0,256.552027,1366.13774,300.75)">
                <path d="M0.08,-0L0.164,-0L0.164,-0.311L0.178,-0.311L0.483,-0L0.598,-0L0.245,-0.354L0.586,-0.7L0.474,-0.7L0.178,-0.395L0.164,-0.395L0.164,-0.7L0.08,-0.7L0.08,-0Z" style="fill:rgb(255,241,219);fill-rule:nonzero;"/>
            </g>
            <g transform="matrix(256.552027,0,0,256.552027,1522.634476,300.75)">
                <path d="M0.08,-0L0.161,-0L0.161,-0.645L0.175,-0.645L0.36,-0L0.505,-0L0.69,-0.645L0.704,-0.645L0.704,-0L0.785,-0L0.785,-0.7L0.625,-0.7L0.439,-0.053L0.426,-0.053L0.24,-0.7L0.08,-0.7L0.08,-0Z" style="fill:rgb(255,241,219);fill-rule:nonzero;"/>
            </g>
            <g transform="matrix(256.552027,0,0,256.552027,1744.55198,300.75)">
                <path d="M0.025,-0L0.112,-0L0.166,-0.177L0.464,-0.177L0.518,-0L0.605,-0L0.389,-0.7L0.241,-0.7L0.025,-0ZM0.188,-0.253L0.308,-0.649L0.322,-0.649L0.442,-0.253L0.188,-0.253Z" style="fill:rgb(255,241,219);fill-rule:nonzero;"/>
            </g>
            <g transform="matrix(256.552027,0,0,256.552027,1886.938355,300.75)">
                <path d="M0.252,-0L0.336,-0L0.336,-0.624L0.561,-0.624L0.561,-0.7L0.027,-0.7L0.027,-0.624L0.252,-0.624L0.252,-0Z" style="fill:rgb(255,241,219);fill-rule:nonzero;"/>
            </g>
            <g transform="matrix(256.552027,0,0,256.552027,2037.790946,300.75)">
                <path d="M0.08,-0L0.516,-0L0.516,-0.076L0.164,-0.076L0.164,-0.314L0.483,-0.314L0.483,-0.39L0.164,-0.39L0.164,-0.624L0.511,-0.624L0.511,-0.7L0.08,-0.7L0.08,-0Z" style="fill:rgb(255,241,219);fill-rule:nonzero;"/>
            </g>
        </g>
    </g>
    <defs>
        <linearGradient id="_Linear1" x1="0" y1="0" x2="1" y2="0" gradientUnits="userSpaceOnUse" gradientTransform="matrix(1981,-401,401,1981,0,401)"><stop offset="0" style="stop-color:rgb(14,20,28);stop-opacity:1"/><stop offset="0.5" style="stop-color:rgb(23,34,48);stop-opacity:1"/><stop offset="1" style="stop-color:rgb(49,75,110);stop-opacity:1"/></linearGradient>
    </defs>
</svg>
