<?xml version="1.0" encoding="UTF-8"?>
<svg id="Warstwa_1" xmlns="http://www.w3.org/2000/svg" version="1.1" viewBox="0 0 512 512">
  <!-- Generator: Adobe Illustrator 29.6.1, SVG Export Plug-In . SVG Version: 2.1.1 Build 9)  -->
  <defs>
    <style>
      .st0 {
        fill: #fff1db;
      }
    </style>
  </defs>
  <path class="st0" d="M484.88,204.05v249.89c0,13.31-10.79,24.1-24.1,24.1H51.22c-13.31,0-24.1-10.79-24.1-24.1v-249.89l32.14,6.72v226.37c0,4.84,3.92,8.76,8.76,8.76h375.96c4.84,0,8.76-3.92,8.76-8.76v-226.37l32.14-6.72ZM38.31,33.96c-8.47,0-13.83,6.71-16.93,15.13-.13.35-.24.72-.34,1.08L1.87,116.66c-3.3,12.4-2.26,25.64,3.39,37.16,9.88,20.15,32.05,34.02,56.01,34.02,30.3,0,55.41-22.2,59.97-51.22.28-1.79,1.8-3.13,3.61-3.13h2.65c1.81,0,3.33,1.33,3.61,3.13,4.56,29.02,29.67,51.22,59.97,51.22s55.41-22.2,59.97-51.22c.28-1.79,1.8-3.13,3.61-3.13h2.65c1.81,0,3.33,1.33,3.61,3.13,4.56,29.02,29.67,51.22,59.97,51.22s55.41-22.2,59.97-51.22c.28-1.79,1.8-3.13,3.61-3.13h2.65c1.81,0,3.33,1.33,3.61,3.13,4.56,29.02,29.67,51.22,59.97,51.22,23.95,0,46.13-13.87,56.01-34.02,5.65-11.52,6.69-24.76,3.39-37.16l-19.17-66.48c-.1-.37-.21-.73-.34-1.08-3.1-8.42-8.46-15.13-16.93-15.13H38.31ZM418.88,233.59v176.6c0,6.25-5.07,11.32-11.32,11.32-2.57,0-5.04-.99-6.91-2.75l-76.18-72.22c-2.87-2.72-7.39-2.66-10.19.14l-19.89,19.89c-2,2-5.23,2-7.23,0l-71.92-71.92c-3.71-3.71-9.72-3.71-13.43,0l-108.69,108.69v-169.74c0-6.25,5.07-11.32,11.32-11.32h303.12c6.25,0,11.32,5.07,11.32,11.32ZM375.76,287.92c0-18.71-15.17-33.87-33.87-33.87s-33.87,15.16-33.87,33.87,15.17,33.87,33.87,33.87,33.87-15.16,33.87-33.87Z"/>
</svg>
